<svg version="1.1" id="Layer_1" xmlns="http://www.w3.org/2000/svg" xmlns:xlink="http://www.w3.org/1999/xlink" x="0px" y="0px" width="641.1px" height="690.1px" viewBox="0 0 641.1 690.1" enable-background="new 0 0 641.1 690.1" xml:space="preserve">
<rect x="278.9" y="41.6" fill="none" stroke="#FFFFFF" stroke-width="3" stroke-linecap="round" stroke-miterlimit="10" width="83.2" height="14.3"></rect>
<polyline fill="none" stroke="#FFFFFF" stroke-width="3" stroke-linecap="round" stroke-miterlimit="10" points="268.3,571.6 
	268.3,56 372.8,56 372.8,571.6 "></polyline>
<polyline fill="none" stroke="#FFFFFF" stroke-width="3" stroke-linecap="round" stroke-miterlimit="10" points="304.8,561.7 
	304.8,27 336.3,27 336.3,561.7 "></polyline>
<polyline fill="none" stroke="#FFFFFF" stroke-width="3" stroke-linecap="round" stroke-miterlimit="10" points="394.1,583.4 
	394.1,229.6 458.1,229.6 458.1,623.9 "></polyline>
<path fill="none" stroke="#FFFFFF" stroke-width="3" stroke-linecap="round" stroke-miterlimit="10" d="M404.8,633.9"></path>
<path fill="none" stroke="#FFFFFF" stroke-width="3" stroke-linecap="round" stroke-miterlimit="10" d="M404.8,229.6"></path>
<line fill="none" stroke="#FFFFFF" stroke-width="3" stroke-linecap="round" stroke-miterlimit="10" x1="415.5" y1="229.6" x2="415.5" y2="601.5"></line>
<line fill="none" stroke="#FFFFFF" stroke-width="3" stroke-linecap="round" stroke-miterlimit="10" x1="436.8" y1="229.6" x2="436.8" y2="633.9"></line>
<rect x="497.6" y="219" fill="none" stroke="#FFFFFF" stroke-width="3" stroke-linecap="round" stroke-miterlimit="10" width="64" height="414.9"></rect>
<line fill="none" stroke="#FFFFFF" stroke-width="3" stroke-linecap="round" stroke-miterlimit="10" x1="497.6" y1="229.6" x2="497.6" y2="633.9"></line>
<line fill="none" stroke="#FFFFFF" stroke-width="3" stroke-linecap="round" stroke-miterlimit="10" x1="518.9" y1="219" x2="518.9" y2="633.9"></line>
<line fill="none" stroke="#FFFFFF" stroke-width="3" stroke-linecap="round" stroke-miterlimit="10" x1="540.2" y1="219" x2="540.2" y2="633.9"></line>
<rect x="458.1" y="197.6" fill="none" stroke="#FFFFFF" stroke-width="3" stroke-linecap="round" stroke-miterlimit="10" width="39.5" height="436.2"></rect>
<line fill="none" stroke="#FFFFFF" stroke-width="3" stroke-linecap="round" stroke-miterlimit="10" x1="458.1" y1="197.6" x2="497.6" y2="197.6"></line>
<line fill="none" stroke="#FFFFFF" stroke-width="3" stroke-linecap="round" stroke-miterlimit="10" x1="458.1" y1="219" x2="497.6" y2="219"></line>
<line fill="none" stroke="#FFFFFF" stroke-width="3" stroke-linecap="round" stroke-miterlimit="10" x1="458.1" y1="261.6" x2="497.6" y2="261.6"></line>
<line fill="none" stroke="#FFFFFF" stroke-width="3" stroke-linecap="round" stroke-miterlimit="10" x1="458.1" y1="304.3" x2="497.6" y2="304.3"></line>
<line fill="none" stroke="#FFFFFF" stroke-width="3" stroke-linecap="round" stroke-miterlimit="10" x1="458.1" y1="347" x2="497.6" y2="347"></line>
<line fill="none" stroke="#FFFFFF" stroke-width="3" stroke-linecap="round" stroke-miterlimit="10" x1="458.1" y1="389.6" x2="497.6" y2="389.6"></line>
<line fill="none" stroke="#FFFFFF" stroke-width="3" stroke-linecap="round" stroke-miterlimit="10" x1="458.1" y1="432.3" x2="497.6" y2="432.3"></line>
<line fill="none" stroke="#FFFFFF" stroke-width="3" stroke-linecap="round" stroke-miterlimit="10" x1="458.1" y1="474.9" x2="468.8" y2="474.9"></line>
<line fill="none" stroke="#FFFFFF" stroke-width="3" stroke-linecap="round" stroke-miterlimit="10" x1="458.1" y1="517.6" x2="468.8" y2="517.6"></line>
<line fill="none" stroke="#FFFFFF" stroke-width="3" stroke-linecap="round" stroke-miterlimit="10" x1="458.1" y1="560.3" x2="468.8" y2="560.3"></line>
<line fill="none" stroke="#FFFFFF" stroke-width="3" stroke-linecap="round" stroke-miterlimit="10" x1="458.1" y1="602.9" x2="468.8" y2="602.9"></line>
<line fill="none" stroke="#FFFFFF" stroke-width="3" stroke-linecap="round" stroke-miterlimit="10" x1="486.9" y1="474.9" x2="497.6" y2="474.9"></line>
<line fill="none" stroke="#FFFFFF" stroke-width="3" stroke-linecap="round" stroke-miterlimit="10" x1="486.9" y1="517.6" x2="497.6" y2="517.6"></line>
<line fill="none" stroke="#FFFFFF" stroke-width="3" stroke-linecap="round" stroke-miterlimit="10" x1="486.9" y1="560.3" x2="497.6" y2="560.3"></line>
<line fill="none" stroke="#FFFFFF" stroke-width="3" stroke-linecap="round" stroke-miterlimit="10" x1="486.9" y1="602.9" x2="497.6" y2="602.9"></line>
<rect x="468.8" y="442.9" fill="none" stroke="#FFFFFF" stroke-width="3" stroke-linecap="round" stroke-miterlimit="10" width="18.1" height="190.9"></rect>
<rect x="497.6" y="208.3" fill="none" stroke="#FFFFFF" stroke-width="3" stroke-linecap="round" stroke-miterlimit="10" width="64" height="10.7"></rect>
<rect x="79.5" y="229.6" fill="none" stroke="#FFFFFF" stroke-width="3" stroke-linecap="round" stroke-miterlimit="10" width="64" height="404.2"></rect>
<line fill="none" stroke="#FFFFFF" stroke-width="3" stroke-linecap="round" stroke-miterlimit="10" x1="100.8" y1="229.6" x2="100.8" y2="633.9"></line>
<line fill="none" stroke="#FFFFFF" stroke-width="3" stroke-linecap="round" stroke-miterlimit="10" x1="122.2" y1="229.6" x2="122.2" y2="633.9"></line>
<polyline fill="none" stroke="#FFFFFF" stroke-width="3" stroke-linecap="round" stroke-miterlimit="10" points="183,623.9 183,219 
	246.9,219 246.9,583.4 "></polyline>
<line fill="none" stroke="#FFFFFF" stroke-width="3" stroke-linecap="round" stroke-miterlimit="10" x1="183" y1="229.6" x2="183" y2="633.9"></line>
<path fill="none" stroke="#FFFFFF" stroke-width="3" stroke-linecap="round" stroke-miterlimit="10" d="M193.6,633.9"></path>
<path fill="none" stroke="#FFFFFF" stroke-width="3" stroke-linecap="round" stroke-miterlimit="10" d="M193.6,219"></path>
<line fill="none" stroke="#FFFFFF" stroke-width="3" stroke-linecap="round" stroke-miterlimit="10" x1="204.3" y1="219" x2="204.3" y2="633.9"></line>
<path fill="none" stroke="#FFFFFF" stroke-width="3" stroke-linecap="round" stroke-miterlimit="10" d="M215,633.9"></path>
<path fill="none" stroke="#FFFFFF" stroke-width="3" stroke-linecap="round" stroke-miterlimit="10" d="M215,219"></path>
<line fill="none" stroke="#FFFFFF" stroke-width="3" stroke-linecap="round" stroke-miterlimit="10" x1="225.6" y1="219" x2="225.6" y2="601.5"></line>
<path fill="none" stroke="#FFFFFF" stroke-width="3" stroke-linecap="round" stroke-miterlimit="10" d="M236.3,633.9"></path>
<path fill="none" stroke="#FFFFFF" stroke-width="3" stroke-linecap="round" stroke-miterlimit="10" d="M236.3,219"></path>
<rect x="143.5" y="197.6" fill="none" stroke="#FFFFFF" stroke-width="3" stroke-linecap="round" stroke-miterlimit="10" width="39.5" height="436.2"></rect>
<line fill="none" stroke="#FFFFFF" stroke-width="3" stroke-linecap="round" stroke-miterlimit="10" x1="143.5" y1="197.6" x2="183" y2="197.6"></line>
<line fill="none" stroke="#FFFFFF" stroke-width="3" stroke-linecap="round" stroke-miterlimit="10" x1="143.5" y1="219" x2="183" y2="219"></line>
<line fill="none" stroke="#FFFFFF" stroke-width="3" stroke-linecap="round" stroke-miterlimit="10" x1="143.5" y1="261.6" x2="183" y2="261.6"></line>
<line fill="none" stroke="#FFFFFF" stroke-width="3" stroke-linecap="round" stroke-miterlimit="10" x1="143.5" y1="304.3" x2="183" y2="304.3"></line>
<line fill="none" stroke="#FFFFFF" stroke-width="3" stroke-linecap="round" stroke-miterlimit="10" x1="143.5" y1="347" x2="183" y2="347"></line>
<line fill="none" stroke="#FFFFFF" stroke-width="3" stroke-linecap="round" stroke-miterlimit="10" x1="143.5" y1="389.6" x2="183" y2="389.6"></line>
<line fill="none" stroke="#FFFFFF" stroke-width="3" stroke-linecap="round" stroke-miterlimit="10" x1="143.5" y1="432.3" x2="183" y2="432.3"></line>
<line fill="none" stroke="#FFFFFF" stroke-width="3" stroke-linecap="round" stroke-miterlimit="10" x1="143.5" y1="474.9" x2="154.2" y2="474.9"></line>
<line fill="none" stroke="#FFFFFF" stroke-width="3" stroke-linecap="round" stroke-miterlimit="10" x1="143.5" y1="517.6" x2="154.2" y2="517.6"></line>
<line fill="none" stroke="#FFFFFF" stroke-width="3" stroke-linecap="round" stroke-miterlimit="10" x1="143.5" y1="560.3" x2="154.2" y2="560.3"></line>
<line fill="none" stroke="#FFFFFF" stroke-width="3" stroke-linecap="round" stroke-miterlimit="10" x1="143.5" y1="602.9" x2="154.2" y2="602.9"></line>
<line fill="none" stroke="#FFFFFF" stroke-width="3" stroke-linecap="round" stroke-miterlimit="10" x1="172.3" y1="474.9" x2="183" y2="474.9"></line>
<line fill="none" stroke="#FFFFFF" stroke-width="3" stroke-linecap="round" stroke-miterlimit="10" x1="172.3" y1="517.6" x2="183" y2="517.6"></line>
<line fill="none" stroke="#FFFFFF" stroke-width="3" stroke-linecap="round" stroke-miterlimit="10" x1="172.3" y1="560.3" x2="183" y2="560.3"></line>
<line fill="none" stroke="#FFFFFF" stroke-width="3" stroke-linecap="round" stroke-miterlimit="10" x1="172.3" y1="602.9" x2="183" y2="602.9"></line>
<rect x="154.2" y="442.9" fill="none" stroke="#FFFFFF" stroke-width="3" stroke-linecap="round" stroke-miterlimit="10" width="18.1" height="190.9"></rect>
<rect x="183" y="208.3" fill="none" stroke="#FFFFFF" stroke-width="3" stroke-linecap="round" stroke-miterlimit="10" width="64" height="10.7"></rect>
<ellipse fill="none" stroke="#FFFFFF" stroke-width="3" stroke-linecap="round" stroke-miterlimit="10" cx="320.5" cy="27" rx="15.8" ry="0"></ellipse>
<ellipse fill="none" stroke="#FFFFFF" stroke-width="3" stroke-linecap="round" stroke-miterlimit="10" cx="320.5" cy="69.7" rx="15.8" ry="0"></ellipse>
<ellipse fill="none" stroke="#FFFFFF" stroke-width="3" stroke-linecap="round" stroke-miterlimit="10" cx="320.5" cy="112.3" rx="15.8" ry="0"></ellipse>
<ellipse fill="none" stroke="#FFFFFF" stroke-width="3" stroke-linecap="round" stroke-miterlimit="10" cx="320.5" cy="155" rx="15.8" ry="0"></ellipse>
<ellipse fill="none" stroke="#FFFFFF" stroke-width="3" stroke-linecap="round" stroke-miterlimit="10" cx="320.5" cy="197.6" rx="15.8" ry="0"></ellipse>
<ellipse fill="none" stroke="#FFFFFF" stroke-width="3" stroke-linecap="round" stroke-miterlimit="10" cx="320.5" cy="240.3" rx="15.8" ry="0"></ellipse>
<ellipse fill="none" stroke="#FFFFFF" stroke-width="3" stroke-linecap="round" stroke-miterlimit="10" cx="320.5" cy="283" rx="15.8" ry="0"></ellipse>
<ellipse fill="none" stroke="#FFFFFF" stroke-width="3" stroke-linecap="round" stroke-miterlimit="10" cx="320.5" cy="325.6" rx="15.8" ry="0"></ellipse>
<ellipse fill="none" stroke="#FFFFFF" stroke-width="3" stroke-linecap="round" stroke-miterlimit="10" cx="320.5" cy="368.3" rx="15.8" ry="0"></ellipse>
<ellipse fill="none" stroke="#FFFFFF" stroke-width="3" stroke-linecap="round" stroke-miterlimit="10" cx="320.5" cy="410.9" rx="15.8" ry="0"></ellipse>
<ellipse fill="none" stroke="#FFFFFF" stroke-width="3" stroke-linecap="round" stroke-miterlimit="10" cx="320.5" cy="453.6" rx="15.8" ry="0"></ellipse>
<ellipse fill="none" stroke="#FFFFFF" stroke-width="3" stroke-linecap="round" stroke-miterlimit="10" cx="320.5" cy="496.3" rx="15.8" ry="0"></ellipse>
<ellipse fill="none" stroke="#FFFFFF" stroke-width="3" stroke-linecap="round" stroke-miterlimit="10" cx="320.5" cy="538.9" rx="15.8" ry="0"></ellipse>
<g>
	<g>
		
			<rect x="28.8" y="634.4" fill="none" stroke="#FFFFFF" stroke-width="3" stroke-linecap="round" stroke-miterlimit="10" width="583.4" height="28.8"></rect>
		
			<rect x="50.2" y="663.2" fill="none" stroke="#FFFFFF" stroke-width="3" stroke-linecap="round" stroke-miterlimit="10" width="540.7" height="28.8"></rect>
		
			<line fill="none" stroke="#FFFFFF" stroke-width="3" stroke-linecap="round" stroke-miterlimit="10" x1="50.2" y1="663.2" x2="50.2" y2="692"></line>
		
			<line fill="none" stroke="#FFFFFF" stroke-width="3" stroke-linecap="round" stroke-miterlimit="10" x1="86.2" y1="663.2" x2="86.2" y2="692"></line>
		
			<line fill="none" stroke="#FFFFFF" stroke-width="3" stroke-linecap="round" stroke-miterlimit="10" x1="122.3" y1="663.2" x2="122.3" y2="692"></line>
		
			<line fill="none" stroke="#FFFFFF" stroke-width="3" stroke-linecap="round" stroke-miterlimit="10" x1="158.3" y1="663.2" x2="158.3" y2="692"></line>
		
			<line fill="none" stroke="#FFFFFF" stroke-width="3" stroke-linecap="round" stroke-miterlimit="10" x1="194.4" y1="663.2" x2="194.4" y2="692"></line>
		
			<line fill="none" stroke="#FFFFFF" stroke-width="3" stroke-linecap="round" stroke-miterlimit="10" x1="446.7" y1="663.2" x2="446.7" y2="692"></line>
		
			<line fill="none" stroke="#FFFFFF" stroke-width="3" stroke-linecap="round" stroke-miterlimit="10" x1="482.8" y1="663.2" x2="482.8" y2="692"></line>
		
			<line fill="none" stroke="#FFFFFF" stroke-width="3" stroke-linecap="round" stroke-miterlimit="10" x1="518.8" y1="663.2" x2="518.8" y2="692"></line>
		
			<line fill="none" stroke="#FFFFFF" stroke-width="3" stroke-linecap="round" stroke-miterlimit="10" x1="554.9" y1="663.2" x2="554.9" y2="692"></line>
	</g>
	<g>
		<path fill="none" stroke="#FFFFFF" stroke-width="3" stroke-linecap="round" stroke-miterlimit="10" d="M398.6,692l19.9-87.2
			c-24-27-59-44-98-44s-74,17-98,44l19.9,87.2H398.6z"></path>
	</g>
</g>
<line fill="none" stroke="#FFFFFF" stroke-width="3" stroke-linecap="round" stroke-miterlimit="10" x1="232.6" y1="648.8" x2="408.5" y2="648.8"></line>
<line fill="none" stroke="#FFFFFF" stroke-width="3" stroke-linecap="round" stroke-miterlimit="10" x1="222.5" y1="604.8" x2="418.5" y2="604.8"></line>
<g>
</g>
<g>
</g>
<g>
</g>
<g>
</g>
<g>
</g>
<g>
</g>
<g>
</g>
<g>
</g>
<g>
</g>
<g>
</g>
<g>
</g>
<g>
</g>
<g>
</g>
<g>
</g>
<g>
</g>
</svg>