<svg version="1.1" id="Layer_1" xmlns="http://www.w3.org/2000/svg" xmlns:xlink="http://www.w3.org/1999/xlink" x="0px" y="0px" width="829.5px" height="483.9px" viewBox="0 0 829.5 483.9" enable-background="new 0 0 829.5 483.9" xml:space="preserve">
<line fill="none" stroke="#FFFFFF" stroke-width="3" stroke-miterlimit="10" x1="241.3" y1="444.7" x2="241.3" y2="483.9"></line>
<line fill="none" stroke="#FFFFFF" stroke-width="3" stroke-miterlimit="10" x1="211.3" y1="452.3" x2="211.3" y2="483.9"></line>
<line fill="none" stroke="#FFFFFF" stroke-width="3" stroke-miterlimit="10" x1="181.3" y1="459.7" x2="181.3" y2="483.9"></line>
<line fill="none" stroke="#FFFFFF" stroke-width="3" stroke-miterlimit="10" x1="271.3" y1="444.7" x2="271.3" y2="483.9"></line>
<line fill="none" stroke="#FFFFFF" stroke-width="3" stroke-miterlimit="10" x1="301.3" y1="444.7" x2="301.3" y2="483.9"></line>
<line fill="none" stroke="#FFFFFF" stroke-width="3" stroke-miterlimit="10" x1="331.3" y1="444.7" x2="331.3" y2="483.9"></line>
<line fill="none" stroke="#FFFFFF" stroke-width="3" stroke-miterlimit="10" x1="361.3" y1="444.7" x2="361.3" y2="483.9"></line>
<line fill="none" stroke="#FFFFFF" stroke-width="3" stroke-miterlimit="10" x1="391.3" y1="444.7" x2="391.3" y2="483.9"></line>
<line fill="none" stroke="#FFFFFF" stroke-width="3" stroke-miterlimit="10" x1="421.3" y1="439.8" x2="421.3" y2="483.9"></line>
<line fill="none" stroke="#FFFFFF" stroke-width="3" stroke-miterlimit="10" x1="451.3" y1="432.4" x2="451.3" y2="483.9"></line>
<line fill="none" stroke="#FFFFFF" stroke-width="3" stroke-miterlimit="10" x1="481.3" y1="425.1" x2="481.3" y2="483.9"></line>
<line fill="none" stroke="#FFFFFF" stroke-width="3" stroke-miterlimit="10" x1="511.3" y1="417.7" x2="511.3" y2="483.9"></line>
<line fill="none" stroke="#FFFFFF" stroke-width="3" stroke-miterlimit="10" x1="541.3" y1="410.4" x2="541.3" y2="483.9"></line>
<line fill="none" stroke="#FFFFFF" stroke-width="3" stroke-miterlimit="10" x1="571.3" y1="403" x2="571.3" y2="483.9"></line>
<line fill="none" stroke="#FFFFFF" stroke-width="3" stroke-miterlimit="10" x1="601.3" y1="395.7" x2="601.3" y2="483.9"></line>
<line fill="none" stroke="#FFFFFF" stroke-width="3" stroke-miterlimit="10" x1="631.3" y1="388.3" x2="631.3" y2="483.9"></line>
<line fill="none" stroke="#FFFFFF" stroke-width="3" stroke-miterlimit="10" x1="661.3" y1="381" x2="661.3" y2="483.9"></line>
<line fill="none" stroke="#FFFFFF" stroke-width="3" stroke-miterlimit="10" x1="691.3" y1="373.6" x2="691.3" y2="483.9"></line>
<rect x="91.3" y="200.4" fill="none" stroke="#FFFFFF" stroke-width="3" stroke-miterlimit="10" width="330" height="162.8"></rect>
<path fill="none" stroke="#FFFFFF" stroke-width="3" stroke-miterlimit="10" d="M91.3,281.8H724c23.9,0,43.4,19.4,43.4,43.4v0
	c0,23.9-19.4,43.4-43.4,43.4h-10.6l-310.6,76.1H242.5L82.4,483.9l-2.4-9.7l161.3-39.5h160.2l310.6-76.1H724
	c18.4,0,33.4-15,33.4-33.4s-15-33.4-33.4-33.4H91.3C91.3,291.8,91.3,281.8,91.3,281.8z"></path>
<line fill="none" stroke="#FFFFFF" stroke-width="3" stroke-miterlimit="10" x1="80" y1="454.2" x2="241.3" y2="414.7"></line>
<line fill="none" stroke="#FFFFFF" stroke-width="3" stroke-miterlimit="10" x1="241.3" y1="434.7" x2="241.3" y2="291.8"></line>
<line fill="none" stroke="#FFFFFF" stroke-width="3" stroke-miterlimit="10" x1="241.3" y1="281.8" x2="241.3" y2="200.4"></line>
<line fill="none" stroke="#FFFFFF" stroke-width="3" stroke-miterlimit="10" x1="211.3" y1="281.8" x2="211.3" y2="200.4"></line>
<line fill="none" stroke="#FFFFFF" stroke-width="3" stroke-miterlimit="10" x1="181.3" y1="281.8" x2="181.3" y2="200.4"></line>
<line fill="none" stroke="#FFFFFF" stroke-width="3" stroke-miterlimit="10" x1="151.3" y1="281.8" x2="151.3" y2="200.4"></line>
<line fill="none" stroke="#FFFFFF" stroke-width="3" stroke-miterlimit="10" x1="121.3" y1="281.8" x2="121.3" y2="200.4"></line>
<line fill="none" stroke="#FFFFFF" stroke-width="3" stroke-miterlimit="10" x1="211.3" y1="363.2" x2="211.3" y2="291.8"></line>
<line fill="none" stroke="#FFFFFF" stroke-width="3" stroke-miterlimit="10" x1="181.3" y1="363.2" x2="181.3" y2="291.8"></line>
<line fill="none" stroke="#FFFFFF" stroke-width="3" stroke-miterlimit="10" x1="151.3" y1="363.2" x2="151.3" y2="291.8"></line>
<line fill="none" stroke="#FFFFFF" stroke-width="3" stroke-miterlimit="10" x1="121.3" y1="363.2" x2="121.3" y2="291.8"></line>
<line fill="none" stroke="#FFFFFF" stroke-width="3" stroke-miterlimit="10" x1="271.3" y1="434.7" x2="271.3" y2="291.8"></line>
<line fill="none" stroke="#FFFFFF" stroke-width="3" stroke-miterlimit="10" x1="271.3" y1="281.8" x2="271.3" y2="200.4"></line>
<line fill="none" stroke="#FFFFFF" stroke-width="3" stroke-miterlimit="10" x1="301.3" y1="434.7" x2="301.3" y2="291.8"></line>
<line fill="none" stroke="#FFFFFF" stroke-width="3" stroke-miterlimit="10" x1="301.3" y1="281.8" x2="301.3" y2="200.4"></line>
<line fill="none" stroke="#FFFFFF" stroke-width="3" stroke-miterlimit="10" x1="331.3" y1="434.7" x2="331.3" y2="291.8"></line>
<line fill="none" stroke="#FFFFFF" stroke-width="3" stroke-miterlimit="10" x1="331.3" y1="281.8" x2="331.3" y2="200.4"></line>
<line fill="none" stroke="#FFFFFF" stroke-width="3" stroke-miterlimit="10" x1="361.3" y1="434.7" x2="361.3" y2="291.8"></line>
<line fill="none" stroke="#FFFFFF" stroke-width="3" stroke-miterlimit="10" x1="361.3" y1="281.8" x2="361.3" y2="200.4"></line>
<line fill="none" stroke="#FFFFFF" stroke-width="3" stroke-miterlimit="10" x1="391.3" y1="434.7" x2="391.3" y2="291.8"></line>
<line fill="none" stroke="#FFFFFF" stroke-width="3" stroke-miterlimit="10" x1="421.3" y1="429.8" x2="421.3" y2="291.8"></line>
<line fill="none" stroke="#FFFFFF" stroke-width="3" stroke-miterlimit="10" x1="451.3" y1="422.4" x2="451.3" y2="291.8"></line>
<line fill="none" stroke="#FFFFFF" stroke-width="3" stroke-miterlimit="10" x1="481.3" y1="415.1" x2="481.3" y2="291.8"></line>
<line fill="none" stroke="#FFFFFF" stroke-width="3" stroke-miterlimit="10" x1="511.3" y1="407.7" x2="511.3" y2="291.8"></line>
<line fill="none" stroke="#FFFFFF" stroke-width="3" stroke-miterlimit="10" x1="541.3" y1="400.4" x2="541.3" y2="291.8"></line>
<line fill="none" stroke="#FFFFFF" stroke-width="3" stroke-miterlimit="10" x1="571.3" y1="393" x2="571.3" y2="291.8"></line>
<line fill="none" stroke="#FFFFFF" stroke-width="3" stroke-miterlimit="10" x1="601.3" y1="385.7" x2="601.3" y2="291.8"></line>
<line fill="none" stroke="#FFFFFF" stroke-width="3" stroke-miterlimit="10" x1="631.3" y1="378.3" x2="631.3" y2="291.8"></line>
<line fill="none" stroke="#FFFFFF" stroke-width="3" stroke-miterlimit="10" x1="661.3" y1="371" x2="661.3" y2="291.8"></line>
<line fill="none" stroke="#FFFFFF" stroke-width="3" stroke-miterlimit="10" x1="691.3" y1="363.6" x2="691.3" y2="291.8"></line>
<line fill="none" stroke="#FFFFFF" stroke-width="3" stroke-miterlimit="10" x1="721.3" y1="358.5" x2="721.3" y2="291.8"></line>
<line fill="none" stroke="#FFFFFF" stroke-width="3" stroke-miterlimit="10" x1="391.3" y1="281.8" x2="391.3" y2="200.4"></line>
<polyline fill="none" stroke="#FFFFFF" stroke-width="3" stroke-miterlimit="10" points="742.5,483.9 713.3,368.5 767.3,368.5 
	767.3,325.2 "></polyline>
<rect x="91.3" y="190.4" fill="none" stroke="#FFFFFF" stroke-width="3" stroke-miterlimit="10" width="330" height="10"></rect>
<line fill="none" stroke="#FFFFFF" stroke-width="3" stroke-miterlimit="10" x1="128.9" y1="363.2" x2="128.9" y2="461.8"></line>
<line fill="none" stroke="#FFFFFF" stroke-width="3" stroke-miterlimit="10" x1="143.9" y1="363.2" x2="143.9" y2="458.2"></line>
<g>
	<line fill="none" stroke="#FFFFFF" stroke-width="3" stroke-miterlimit="10" x1="89.8" y1="471.8" x2="89.8" y2="452.3"></line>
	<line fill="none" stroke="#FFFFFF" stroke-width="3" stroke-miterlimit="10" x1="105.3" y1="468" x2="105.3" y2="448.5"></line>
	<line fill="none" stroke="#FFFFFF" stroke-width="3" stroke-miterlimit="10" x1="120.7" y1="464.3" x2="120.7" y2="444.6"></line>
	<line fill="none" stroke="#FFFFFF" stroke-width="3" stroke-miterlimit="10" x1="136.1" y1="460.6" x2="136.1" y2="440.8"></line>
	<line fill="none" stroke="#FFFFFF" stroke-width="3" stroke-miterlimit="10" x1="151.6" y1="456.9" x2="151.6" y2="436.9"></line>
	<line fill="none" stroke="#FFFFFF" stroke-width="3" stroke-miterlimit="10" x1="167" y1="453.1" x2="167" y2="433.1"></line>
	<line fill="none" stroke="#FFFFFF" stroke-width="3" stroke-miterlimit="10" x1="182.4" y1="449.4" x2="182.4" y2="429.3"></line>
	<line fill="none" stroke="#FFFFFF" stroke-width="3" stroke-miterlimit="10" x1="197.9" y1="445.7" x2="197.9" y2="425.4"></line>
	<line fill="none" stroke="#FFFFFF" stroke-width="3" stroke-miterlimit="10" x1="213.3" y1="442" x2="213.3" y2="421.6"></line>
	<line fill="none" stroke="#FFFFFF" stroke-width="3" stroke-miterlimit="10" x1="228.7" y1="417.7" x2="228.7" y2="438.2"></line>
</g>
<line fill="none" stroke="#FFFFFF" stroke-width="3" stroke-miterlimit="10" x1="361.3" y1="452.3" x2="391.3" y2="452.3"></line>
<line fill="none" stroke="#FFFFFF" stroke-width="3" stroke-miterlimit="10" x1="361.3" y1="458.3" x2="391.3" y2="458.3"></line>
<line fill="none" stroke="#FFFFFF" stroke-width="3" stroke-miterlimit="10" x1="376.3" y1="458.3" x2="376.3" y2="483.9"></line>
<path fill="none" stroke="#FFFFFF" stroke-width="3" stroke-miterlimit="10" d="M299,75.9h-17.4h-0.2c0-0.1,0-0.3,0-0.4
	c0-9.7-7.9-17.6-17.6-17.6c-0.4,0-0.7,0-1.1,0c-2.1-10.4-11.4-18.3-22.5-18.3c-12.7,0-22.9,10.3-22.9,22.9c0,1.6,0.2,3.2,0.5,4.7
	c-1.3-0.4-2.7-0.7-4.2-0.7c-6,0-11,4-12.6,9.4h-17.4"></path>
<path fill="none" stroke="#FFFFFF" stroke-width="3" stroke-miterlimit="10" d="M603.5,154.6h-20.3H583c-0.5-6.6-5.9-11.8-12.6-11.8
	c-0.1,0-0.1,0-0.2,0c0.4-1.7,0.6-3.5,0.6-5.3c0-13.9-11.2-25.1-25.1-25.1c-13,0-23.7,9.9-25,22.5c-0.9-0.1-1.7-0.2-2.6-0.2
	c-9.2,0-16.7,7.5-16.7,16.7c0,1.1,0.1,2.1,0.3,3.1h-20.3"></path>
</svg>