<svg version="1.1" id="Layer_1" xmlns="http://www.w3.org/2000/svg" xmlns:xlink="http://www.w3.org/1999/xlink" x="0px" y="0px" width="1274px" height="659.4px" viewBox="0 0 1274 659.4" enable-background="new 0 0 1274 659.4" xml:space="preserve">
<line fill="none" stroke="#FFFFFF" stroke-width="3" stroke-miterlimit="10" x1="455.6" y1="498.8" x2="561.2" y2="535"></line>
<line fill="none" stroke="#FFFFFF" stroke-width="3" stroke-miterlimit="10" x1="429.1" y1="442.3" x2="575.8" y2="492.5"></line>
<line fill="none" stroke="#FFFFFF" stroke-width="3" stroke-miterlimit="10" x1="421.6" y1="392.2" x2="579.4" y2="446.3"></line>
<line fill="none" stroke="#FFFFFF" stroke-width="3" stroke-miterlimit="10" x1="426.3" y1="346.4" x2="558.5" y2="391.7"></line>
<line fill="none" stroke="#FFFFFF" stroke-width="3" stroke-miterlimit="10" x1="689.6" y1="389.1" x2="810.9" y2="430.6"></line>
<line fill="none" stroke="#FFFFFF" stroke-width="3" stroke-miterlimit="10" x1="598" y1="310.3" x2="815.3" y2="384.6"></line>
<line fill="none" stroke="#FFFFFF" stroke-width="3" stroke-miterlimit="10" x1="501.8" y1="229.9" x2="565.2" y2="251.6"></line>
<line fill="none" stroke="#FFFFFF" stroke-width="3" stroke-miterlimit="10" x1="557.4" y1="201.4" x2="571.7" y2="206.3"></line>
<line fill="none" stroke="#FFFFFF" stroke-width="3" stroke-miterlimit="10" x1="728.9" y1="551.5" x2="805.7" y2="327.3"></line>
<line fill="none" stroke="#FFFFFF" stroke-width="3" stroke-miterlimit="10" x1="673" y1="576.5" x2="777.3" y2="271.4"></line>
<line fill="none" stroke="#FFFFFF" stroke-width="3" stroke-miterlimit="10" x1="656.5" y1="347" x2="687.8" y2="255.8"></line>
<line fill="none" stroke="#FFFFFF" stroke-width="3" stroke-miterlimit="10" x1="628.8" y1="289.5" x2="630.9" y2="283.3"></line>
<line fill="none" stroke="#FFFFFF" stroke-width="3" stroke-miterlimit="10" x1="494.9" y1="541.9" x2="576.6" y2="303.3"></line>
<line fill="none" stroke="#FFFFFF" stroke-width="3" stroke-miterlimit="10" x1="460" y1="505.3" x2="564.9" y2="198.7"></line>
<line fill="none" stroke="#FFFFFF" stroke-width="3" stroke-miterlimit="10" x1="431.5" y1="449.7" x2="508.3" y2="225.5"></line>
<path fill="none" stroke="#FFFFFF" stroke-width="3" stroke-miterlimit="10" d="M587.4,193.9l-13.8,6.7l-10.6,30.9l5.3,10.8l-8.9,26
	l31.9,65.1l2.1-1.1c3.3-1.6,3-6.4-0.5-7.6l0,0l6.5-18.9l5.8-2.8c2.1-1,2.9-3.5,1.9-5.5l-1.2-2.4c-0.5-1-1.3-1.7-2.4-2.1l-14-4.8
	l13.2-6.5c3.3-1.6,3-6.4-0.5-7.6l-5.7-1.9l-14.6,7.2l-6.5-13.3l5.3-15.6l18.4-9l29.3,10l7.1,14.5L630,283l9,3.1l5.4-2.7
	c2.9-1.4,5.2-4,6.2-7.1l4.9-14.2l19.4,2.4l12.8-8.8l13.8,5.1c2.6,1,5.4-0.4,6.3-3l0,0l13.7,4.7l12-5.9c3.5-1.7,5-6,3.2-9.5
	l-9.7-19.8c-1.7-3.5-6-5-9.5-3.2l-14.3,7l-8.9-18.2l6.4-3.2"></path>
<line fill="none" stroke="#FFFFFF" stroke-width="3" stroke-miterlimit="10" x1="727.2" y1="259.6" x2="782.3" y2="278.4"></line>
<line fill="none" stroke="#FFFFFF" stroke-width="3" stroke-miterlimit="10" x1="689.6" y1="389.1" x2="735.4" y2="255.2"></line>
<line fill="none" stroke="#FFFFFF" stroke-width="3" stroke-miterlimit="10" x1="465.2" y1="264.8" x2="576.7" y2="303"></line>
<line fill="none" stroke="#FFFFFF" stroke-width="3" stroke-miterlimit="10" x1="578.9" y1="256.3" x2="632.8" y2="274.7"></line>
<line fill="none" stroke="#FFFFFF" stroke-width="3" stroke-miterlimit="10" x1="648.5" y1="280.1" x2="808.5" y2="334.9"></line>
<line fill="none" stroke="#FFFFFF" stroke-width="3" stroke-miterlimit="10" x1="440.7" y1="303.9" x2="573.3" y2="349.3"></line>
<line fill="none" stroke="#FFFFFF" stroke-width="3" stroke-miterlimit="10" x1="699.2" y1="439.8" x2="796.4" y2="473.1"></line>
<line fill="none" stroke="#FFFFFF" stroke-width="3" stroke-miterlimit="10" x1="660" y1="473.9" x2="772.1" y2="512.2"></line>
<line fill="none" stroke="#FFFFFF" stroke-width="3" stroke-miterlimit="10" x1="632.5" y1="511.9" x2="735.7" y2="547.3"></line>
<line fill="none" stroke="#FFFFFF" stroke-width="3" stroke-miterlimit="10" x1="594.4" y1="546.3" x2="676.2" y2="574.3"></line>
<line fill="none" stroke="#FFFFFF" stroke-width="3" stroke-miterlimit="10" x1="622.2" y1="585.9" x2="663.2" y2="466.1"></line>
<line fill="none" stroke="#FFFFFF" stroke-width="3" stroke-miterlimit="10" x1="534" y1="566.3" x2="578.9" y2="435.1"></line>
<path fill="none" stroke="#FFFFFF" stroke-width="3" stroke-miterlimit="10" d="M632.7,290.8l2.2,0.8c2,0.7,3.1,2.9,2.4,4.9
	l-0.7,2.1l11.9,4.1c3.5,1.2,5.4,5,4.2,8.6l0,0c-1.2,3.5-5,5.4-8.6,4.2l-13.4-4.6c-3.5-1.2-5.4-5-4.2-8.6l1.6-4.8l-3.9-1.3
	c-2-0.7-3.1-2.9-2.4-4.9v0c0.7-2,2.9-3.1,4.9-2.4L632.7,290.8z"></path>
<line fill="none" stroke="#FFFFFF" stroke-width="3" stroke-miterlimit="10" x1="614" y1="332.5" x2="626.3" y2="296.7"></line>
<g>
	<path fill="none" stroke="#FFFFFF" stroke-width="3" stroke-miterlimit="10" d="M564.7,409.1c-6-2.1-9.2-8.6-7.2-14.6l14.6-42.6
		c0.2-0.6,0.5-1.2,0.8-1.7c-114.2-8.5-201.5-2.9-203.3,14.4c-1.8,17.7,85.9,41.7,202.7,56.6l-5.7-11.5L564.7,409.1z"></path>
	<path fill="none" stroke="#FFFFFF" stroke-width="3" stroke-miterlimit="10" d="M865.7,416.1c1.8-17.4-83.1-40.9-197.2-55.9
		c-0.1,0.5-0.2,1-0.4,1.5l9.6,3.3c10,3.4,15.3,14.2,11.9,24.2l24.2,8.3c6.9,2.4,10.6,9.9,8.2,16.8l-2.1,6.2
		c-2.4,6.9-9.9,10.6-16.8,8.2l-1.5,4.4C796,437.5,864.2,431.4,865.7,416.1z"></path>
	<path fill="none" stroke="#FFFFFF" stroke-width="3" stroke-miterlimit="10" d="M572.2,421.3l9.3,18.9l-1.8,5.2
		c-2.1,6,1.1,12.5,7.2,14.6l-27.8,81.1c-1,2.9-0.8,6,0.6,8.8L567,565c1.3,2.6,4.5,3.7,7.1,2.4l15.6-7.7l8.9-25.9
		c1-2.8,4-4.3,6.8-3.3l3.9,1.3c2.8,1,5.8-0.5,6.8-3.3l1.8-5.4c1-2.8,4-4.3,6.8-3.3l0,0c2.8,1,5.8-0.5,6.8-3.3l7.3-21.3l17.3-8.5
		l7.3-21.2l32.6-16l5.7-16.7c-27.4-1.3-56.9-3.6-87.7-6.8C599.7,424.7,585.8,423.1,572.2,421.3z"></path>
	<path fill="none" stroke="#FFFFFF" stroke-width="3" stroke-miterlimit="10" d="M713.8,397.4l-24.2-8.3c3.4-10-1.9-20.8-11.9-24.2
		l-9.6-3.3c0.2-0.5,0.3-1,0.4-1.5c0.9-4.8-1.9-9.6-6.6-11.2l-33.1-11.3l-15.6-5.3c-6-2.1-12.5,1.1-14.6,7.2l-2.9,8.5l-9-3.1
		c-5.4-1.9-11.2,0.6-13.8,5.4c-0.3,0.5-0.6,1.1-0.8,1.7l-14.6,42.6c-2.1,6,1.1,12.5,7.2,14.6l1.9,0.6l5.7,11.5
		c13.5,1.7,27.5,3.4,41.7,4.8c30.8,3.2,60.4,5.4,87.7,6.8l1.5-4.4c6.9,2.4,14.4-1.3,16.8-8.2l2.1-6.2
		C724.4,407.2,720.7,399.7,713.8,397.4z"></path>
</g>
<path fill="none" stroke="#FFFFFF" stroke-width="3" stroke-miterlimit="10" d="M585.2,570.4l20.3,33c4.6,7.4,14.4,9.5,21.6,4.6
	l54.8-37.6"></path>
<line fill="none" stroke="#FFFFFF" stroke-width="3" stroke-miterlimit="10" x1="580.1" y1="570.4" x2="582.5" y2="563.2"></line>
<g>
	<polygon fill="none" stroke="#FFFFFF" stroke-width="3" stroke-miterlimit="10" points="675.8,577.3 681.9,570.4 675.8,577.3 	"></polygon>
	<path fill="none" stroke="#FFFFFF" stroke-width="3" stroke-miterlimit="10" d="M682.6,202c-103-35.3-215.1,19.7-250.4,122.7
		s19.7,215.1,122.7,250.4c7,2.4,14.1,4.4,21.2,6l-1.5-10.6h10.7l8.4,13.7c25.7,3.3,51.3,1.5,75.5-4.9l12.8-8.8h10.7l-0.7,1.3
		c51.5-20.6,94.1-62.7,113.4-119.2C840.5,349.4,785.6,237.3,682.6,202z"></path>
	<polygon fill="none" stroke="#FFFFFF" stroke-width="3" stroke-miterlimit="10" points="590.2,583.6 585.2,570.4 590.2,583.6 	"></polygon>
	<path fill="none" stroke="#FFFFFF" stroke-width="3" stroke-miterlimit="10" d="M681.9,570.4l-6.1,6.9l-45.6,51.4
		c-7.4,8.3-21,5.8-24.9-4.6l-15.1-40.4l-5-13.2h-10.7l1.5,10.6l11.2,77.4h55.9l48.6-86.7l0.7-1.3H681.9z"></path>
</g>
<line fill="none" stroke="#FFFFFF" stroke-width="3" stroke-miterlimit="10" x1="571.5" y1="579.9" x2="578" y2="594.1"></line>
<line fill="none" stroke="#FFFFFF" stroke-width="3" stroke-miterlimit="10" x1="587.3" y1="658.4" x2="556.5" y2="575.6"></line>
<g>
	<g>
		
			<line fill="none" stroke="#FFFFFF" stroke-width="2.5" stroke-linecap="round" stroke-miterlimit="10" x1="407.5" y1="486.6" x2="407.7" y2="485.3"></line>
		
			<path fill="none" stroke="#FFFFFF" stroke-width="2.5" stroke-linecap="round" stroke-miterlimit="10" stroke-dasharray="2.5423,5.0847" d="
			M407.4,480.3c-1.8-7.5-8.6-13.1-16.6-13.1c-9.4,0-17.1,7.7-17.1,17.1v6.4v10.1"></path>
		
			<line fill="none" stroke="#FFFFFF" stroke-width="2.5" stroke-linecap="round" stroke-miterlimit="10" x1="373.7" y1="503.3" x2="373.7" y2="504.6"></line>
	</g>
</g>
<path fill="none" stroke="#FFFFFF" stroke-width="2.5" stroke-linecap="round" stroke-miterlimit="10" stroke-dasharray="2.5,5" d="
	M373.7,658.3V516.4c0-4.9,3.9-8.8,8.8-8.8l0,0c4.9,0,8.8,3.9,8.8,8.8v18"></path>
<line fill="none" stroke="#FFFFFF" stroke-width="2.5" stroke-linecap="round" stroke-miterlimit="10" stroke-dasharray="2.5,5" x1="416.3" y1="536.3" x2="416.3" y2="558.3"></line>
<line fill="none" stroke="#FFFFFF" stroke-width="2.5" stroke-linecap="round" stroke-miterlimit="10" stroke-dasharray="2.5,5" x1="402.9" y1="571.9" x2="402.9" y2="600.6"></line>
<g>
	<g>
		
			<line fill="none" stroke="#FFFFFF" stroke-width="2.5" stroke-linecap="round" stroke-miterlimit="10" x1="298.5" y1="486.6" x2="298.7" y2="485.3"></line>
		
			<path fill="none" stroke="#FFFFFF" stroke-width="2.5" stroke-linecap="round" stroke-miterlimit="10" stroke-dasharray="2.5423,5.0847" d="
			M298.4,480.3c-1.8-7.5-8.6-13.1-16.6-13.1c-9.4,0-17.1,7.7-17.1,17.1v6.4v10.1"></path>
		
			<line fill="none" stroke="#FFFFFF" stroke-width="2.5" stroke-linecap="round" stroke-miterlimit="10" x1="264.7" y1="503.3" x2="264.7" y2="504.6"></line>
	</g>
</g>
<path fill="none" stroke="#FFFFFF" stroke-width="2.5" stroke-linecap="round" stroke-miterlimit="10" stroke-dasharray="2.5,5" d="
	M274.7,462.2v-2.1c0-13.2,10.7-23.9,23.9-23.9h0c13.2,0,23.9,10.7,23.9,23.9v51.1"></path>
<path fill="none" stroke="#FFFFFF" stroke-width="2.5" stroke-linecap="round" stroke-miterlimit="10" stroke-dasharray="2.5,5" d="
	M264.7,658.3V516.4c0-4.9,3.9-8.8,8.8-8.8h0c4.9,0,8.8,3.9,8.8,8.8v18"></path>
<line fill="none" stroke="#FFFFFF" stroke-width="2.5" stroke-linecap="round" stroke-miterlimit="10" stroke-dasharray="2.5,5" x1="307.1" y1="532.2" x2="307.1" y2="564.9"></line>
<line fill="none" stroke="#FFFFFF" stroke-width="2.5" stroke-linecap="round" stroke-miterlimit="10" stroke-dasharray="2.5,5" x1="322.4" y1="560.9" x2="322.4" y2="582.9"></line>
<line fill="none" stroke="#FFFFFF" stroke-width="2.5" stroke-linecap="round" stroke-miterlimit="10" stroke-dasharray="2.5,5" x1="293.9" y1="571.9" x2="293.9" y2="600.6"></line>
<g>
	<g>
		
			<line fill="none" stroke="#FFFFFF" stroke-width="2.5" stroke-linecap="round" stroke-miterlimit="10" x1="874.6" y1="486.6" x2="874.4" y2="485.3"></line>
		
			<path fill="none" stroke="#FFFFFF" stroke-width="2.5" stroke-linecap="round" stroke-miterlimit="10" stroke-dasharray="2.5423,5.0847" d="
			M874.7,480.3c1.8-7.5,8.6-13.1,16.6-13.1c9.4,0,17.1,7.7,17.1,17.1v6.4v10.1"></path>
		
			<line fill="none" stroke="#FFFFFF" stroke-width="2.5" stroke-linecap="round" stroke-miterlimit="10" x1="908.4" y1="503.3" x2="908.4" y2="504.6"></line>
	</g>
</g>
<path fill="none" stroke="#FFFFFF" stroke-width="2.5" stroke-linecap="round" stroke-miterlimit="10" stroke-dasharray="2.5,5" d="
	M908.4,658.3V516.4c0-4.9-3.9-8.8-8.8-8.8l0,0c-4.9,0-8.8,3.9-8.8,8.8v18"></path>
<line fill="none" stroke="#FFFFFF" stroke-width="2.5" stroke-linecap="round" stroke-miterlimit="10" stroke-dasharray="2.5,5" x1="865.8" y1="536.3" x2="865.8" y2="558.3"></line>
<line fill="none" stroke="#FFFFFF" stroke-width="2.5" stroke-linecap="round" stroke-miterlimit="10" stroke-dasharray="2.5,5" x1="879.2" y1="571.9" x2="879.2" y2="600.6"></line>
<g>
	<g>
		
			<line fill="none" stroke="#FFFFFF" stroke-width="2.5" stroke-linecap="round" stroke-miterlimit="10" x1="983.6" y1="486.6" x2="983.4" y2="485.3"></line>
		
			<path fill="none" stroke="#FFFFFF" stroke-width="2.5" stroke-linecap="round" stroke-miterlimit="10" stroke-dasharray="2.5423,5.0847" d="
			M983.7,480.3c1.8-7.5,8.6-13.1,16.6-13.1c9.4,0,17.1,7.7,17.1,17.1v6.4v10.1"></path>
		
			<line fill="none" stroke="#FFFFFF" stroke-width="2.5" stroke-linecap="round" stroke-miterlimit="10" x1="1017.4" y1="503.3" x2="1017.4" y2="504.6"></line>
	</g>
</g>
<path fill="none" stroke="#FFFFFF" stroke-width="2.5" stroke-linecap="round" stroke-miterlimit="10" stroke-dasharray="2.5,5" d="
	M1007.4,462.2v-2.1c0-13.2-10.7-23.9-23.9-23.9h0c-13.2,0-23.9,10.7-23.9,23.9v51.1"></path>
<path fill="none" stroke="#FFFFFF" stroke-width="2.5" stroke-linecap="round" stroke-miterlimit="10" stroke-dasharray="2.5,5" d="
	M1017.4,658.3V516.4c0-4.9-3.9-8.8-8.8-8.8h0c-4.9,0-8.8,3.9-8.8,8.8v18"></path>
<line fill="none" stroke="#FFFFFF" stroke-width="2.5" stroke-linecap="round" stroke-miterlimit="10" stroke-dasharray="2.5,5" x1="975" y1="532.2" x2="975" y2="564.9"></line>
<line fill="none" stroke="#FFFFFF" stroke-width="2.5" stroke-linecap="round" stroke-miterlimit="10" stroke-dasharray="2.5,5" x1="959.7" y1="560.9" x2="959.7" y2="582.9"></line>
<line fill="none" stroke="#FFFFFF" stroke-width="2.5" stroke-linecap="round" stroke-miterlimit="10" stroke-dasharray="2.5,5" x1="988.2" y1="571.9" x2="988.2" y2="600.6"></line>
<g>
	<path fill="none" stroke="#FFFFFF" stroke-width="3" stroke-miterlimit="10" d="M785,557.9c3.2-3.3-7.6-19.9-28.4-45.1
		c-10.5,2.2-21.4,3.7-32.8,4.6C758.1,546,781.2,561.8,785,557.9z"></path>
	<path fill="none" stroke="#FFFFFF" stroke-width="3" stroke-miterlimit="10" d="M663.3,465.6l-7.3,21.2l-17.3,8.5l-5.4,15.7
		c31.7,6.4,62.3,8.5,90.5,6.3c-17.3-14.5-37.4-32.2-59.2-52.4L663.3,465.6z"></path>
	<path fill="none" stroke="#FFFFFF" stroke-width="3" stroke-miterlimit="10" d="M681.3,195.8c-131.4-52.6-264.2-29.3-296.7,51.9
		c-32.5,81.2,47.6,189.7,179,242.3c3.8,1.5,7.7,3,11.5,4.4l11.8-34.3c-6-2.1-9.2-8.6-7.2-14.6l1.8-5.2l-9.3-18.9l-5.7-11.5l-1.9-0.6
		c-6-2.1-9.2-8.6-7.2-14.6l8.6-25.1c-79.1-80.4-134.3-146.1-127.5-153c6.9-7,75.1,48.8,158.1,128.4l-1,3l-9-3.1
		c-5.4-1.9-11.2,0.6-13.8,5.4c-0.3,0.5-0.6,1.1-0.8,1.7l-6,17.5c10.2,10.4,20.9,21,31.8,31.8c23.3,22.9,45.8,44.4,66.7,63.7
		l31.3-15.3l1.2-3.6c24,25.5,44.4,48.4,59.5,66.7c50-10.5,88.2-36,103.6-74.7C892.8,356.9,812.7,248.4,681.3,195.8z"></path>
	<path fill="none" stroke="#FFFFFF" stroke-width="3" stroke-miterlimit="10" d="M597.9,401.3c-11-10.8-21.6-21.4-31.8-31.8
		l-8.6,25.1c-2.1,6,1.1,12.5,7.2,14.6l1.9,0.6l5.7,11.5l9.3,18.9l-1.8,5.2c-2.1,6,1.1,12.5,7.2,14.6l-11.8,34.3l-16,46.8
		c-1,2.9-0.8,6,0.6,8.8L567,565c1.3,2.6,4.5,3.7,7.1,2.4l15.6-7.7l8.9-25.9c1-2.8,4-4.3,6.8-3.3l3.9,1.3c2.8,1,5.8-0.5,6.8-3.3
		l1.8-5.4c1-2.8,4-4.3,6.8-3.3h0c2.8,1,5.8-0.5,6.8-3.3l1.9-5.6l5.4-15.7l17.3-8.5l7.3-21.2l1.4-0.7
		C643.7,445.7,621.2,424.2,597.9,401.3z"></path>
	<path fill="none" stroke="#FFFFFF" stroke-width="3" stroke-miterlimit="10" d="M572.8,350.3c2.6-4.9,8.4-7.3,13.8-5.4l9,3.1l1-3
		c-83.1-79.6-151.2-135.4-158.1-128.4c-6.8,6.9,48.4,72.6,127.5,153l6-17.5C572.3,351.4,572.5,350.8,572.8,350.3z"></path>
	<path fill="none" stroke="#FFFFFF" stroke-width="3" stroke-miterlimit="10" d="M695.9,449.6L664.6,465
		c21.9,20.2,41.9,37.9,59.2,52.4c11.4-0.9,22.3-2.4,32.8-4.6c-15.1-18.3-35.5-41.2-59.5-66.7L695.9,449.6z"></path>
</g>
</svg>