<svg version="1.1" id="Layer_1" xmlns="http://www.w3.org/2000/svg" xmlns:xlink="http://www.w3.org/1999/xlink" x="0px" y="0px" width="708px" height="616px" viewBox="0 0 708 616" enable-background="new 0 0 708 616" xml:space="preserve">
<path fill="none" stroke="#FFFFFF" stroke-width="3" stroke-miterlimit="10" d="M348.1,135L348.1,135c-51.5,0-93.3,41.8-93.3,93.3
	v13.5h186.6v-13.5C441.4,176.7,399.6,135,348.1,135z"></path>
<polyline fill="none" stroke="#FFFFFF" stroke-width="3" stroke-miterlimit="10" points="338.8,135 338.8,128.4 357.4,128.4 
	357.4,135 "></polyline>
<path fill="none" stroke="#FFFFFF" stroke-width="3" stroke-miterlimit="10" d="M361.6,123.2v-5.8c0-7.5-13.5-13.5-13.5-13.5
	s-13.5,6-13.5,13.5v5.8h-3.7v5.2h3.7h27h3.7v-5.2H361.6z"></path>
<path fill="none" stroke="#FFFFFF" stroke-width="3" stroke-miterlimit="10" d="M218.7,337.2v-49.1c0-11.3,9.2-20.5,20.5-20.5
	c11.3,0,20.5,9.2,20.5,20.5v49.1H218.7z"></path>
<path fill="none" stroke="#FFFFFF" stroke-width="3" stroke-miterlimit="10" d="M436.6,337.2v-49.1c0-11.3,9.2-20.5,20.5-20.5
	c11.3,0,20.5,9.2,20.5,20.5v49.1H436.6z"></path>
<rect x="225" y="369.9" fill="none" stroke="#FFFFFF" stroke-width="3" stroke-miterlimit="10" width="246.1" height="246.1"></rect>
<path fill="none" stroke="#FFFFFF" stroke-width="3" stroke-miterlimit="10" d="M348.1,472.1L348.1,472.1
	c-51.5,0-93.3,41.8-93.3,93.3V616h186.6v-50.6C441.4,513.9,399.6,472.1,348.1,472.1z"></path>
<path fill="none" stroke="#FFFFFF" stroke-width="3" stroke-miterlimit="10" d="M269.4,616v-50.6c0-43.4,35.3-78.7,78.7-78.7
	s78.7,35.3,78.7,78.7V616H269.4z"></path>
<rect x="269.4" y="565.2" fill="none" stroke="#FFFFFF" stroke-width="3" stroke-miterlimit="10" width="157.4" height="14.6"></rect>
<line fill="none" stroke="#FFFFFF" stroke-width="3" stroke-miterlimit="10" x1="291.9" y1="565.4" x2="291.9" y2="510.4"></line>
<line fill="none" stroke="#FFFFFF" stroke-width="3" stroke-miterlimit="10" x1="314.4" y1="565.4" x2="314.4" y2="494.8"></line>
<line fill="none" stroke="#FFFFFF" stroke-width="3" stroke-miterlimit="10" x1="336.9" y1="565.4" x2="336.9" y2="487.3"></line>
<line fill="none" stroke="#FFFFFF" stroke-width="3" stroke-miterlimit="10" x1="359.3" y1="565.4" x2="359.3" y2="487.3"></line>
<line fill="none" stroke="#FFFFFF" stroke-width="3" stroke-miterlimit="10" x1="381.8" y1="565.4" x2="381.8" y2="494.8"></line>
<line fill="none" stroke="#FFFFFF" stroke-width="3" stroke-miterlimit="10" x1="404.3" y1="565.4" x2="404.3" y2="510.4"></line>
<line fill="none" stroke="#FFFFFF" stroke-width="3" stroke-miterlimit="10" x1="441.4" y1="616" x2="441.4" y2="369.9"></line>
<line fill="none" stroke="#FFFFFF" stroke-width="3" stroke-miterlimit="10" x1="254.8" y1="616" x2="254.8" y2="369.9"></line>
<g>
	<rect x="264.8" y="380.3" fill="none" stroke="#FFFFFF" stroke-width="3" stroke-miterlimit="10" width="14.6" height="42.2"></rect>
	<rect x="298.7" y="380.3" fill="none" stroke="#FFFFFF" stroke-width="3" stroke-miterlimit="10" width="14.6" height="42.2"></rect>
	<rect x="279.3" y="387.9" fill="none" stroke="#FFFFFF" stroke-width="3" stroke-miterlimit="10" width="19.4" height="27"></rect>
	<line fill="none" stroke="#FFFFFF" stroke-width="3" stroke-miterlimit="10" x1="289" y1="387.9" x2="289" y2="414.9"></line>
</g>
<g>
	<rect x="323.7" y="380.3" fill="none" stroke="#FFFFFF" stroke-width="3" stroke-miterlimit="10" width="14.6" height="42.2"></rect>
	<rect x="357.7" y="380.3" fill="none" stroke="#FFFFFF" stroke-width="3" stroke-miterlimit="10" width="14.6" height="42.2"></rect>
	<rect x="338.3" y="387.9" fill="none" stroke="#FFFFFF" stroke-width="3" stroke-miterlimit="10" width="19.4" height="27"></rect>
	<line fill="none" stroke="#FFFFFF" stroke-width="3" stroke-miterlimit="10" x1="348" y1="387.9" x2="348" y2="414.9"></line>
</g>
<g>
	<rect x="382.9" y="380.3" fill="none" stroke="#FFFFFF" stroke-width="3" stroke-miterlimit="10" width="14.6" height="42.2"></rect>
	<rect x="416.9" y="380.3" fill="none" stroke="#FFFFFF" stroke-width="3" stroke-miterlimit="10" width="14.6" height="42.2"></rect>
	<rect x="397.5" y="387.9" fill="none" stroke="#FFFFFF" stroke-width="3" stroke-miterlimit="10" width="19.4" height="27"></rect>
	<line fill="none" stroke="#FFFFFF" stroke-width="3" stroke-miterlimit="10" x1="407.2" y1="387.9" x2="407.2" y2="414.9"></line>
</g>
<circle fill="none" stroke="#FFFFFF" stroke-width="3" stroke-miterlimit="10" cx="348" cy="336.4" r="22.9"></circle>
<circle fill="none" stroke="#FFFFFF" stroke-width="3" stroke-miterlimit="10" cx="348" cy="336.4" r="13.5"></circle>
<path fill="none" stroke="#FFFFFF" stroke-width="3" stroke-miterlimit="10" d="M245.4,310.5v-0.7c0-3.5-2.8-6.3-6.3-6.3
	c-3.5,0-6.3,2.8-6.3,6.3v0.7h-5.4v26.7h23.3v-26.7H245.4z"></path>
<path fill="none" stroke="#FFFFFF" stroke-width="3" stroke-miterlimit="10" d="M463.3,310.5v-0.7c0-3.5-2.8-6.3-6.3-6.3
	c-3.5,0-6.3,2.8-6.3,6.3v0.7h-5.4v26.7h23.3v-26.7H463.3z"></path>
<path fill="none" stroke="#FFFFFF" stroke-width="3" stroke-miterlimit="10" d="M457.1,267.7"></path>
<path fill="none" stroke="#FFFFFF" stroke-width="3" stroke-miterlimit="10" d="M239.2,267.7"></path>
<line fill="none" stroke="#FFFFFF" stroke-width="3" stroke-miterlimit="10" x1="289" y1="241.8" x2="289" y2="313.5"></line>
<line fill="none" stroke="#FFFFFF" stroke-width="3" stroke-miterlimit="10" x1="407.2" y1="241.8" x2="407.2" y2="313.5"></line>
<path fill="none" stroke="#FFFFFF" stroke-width="3" stroke-miterlimit="10" d="M348.1,135L348.1,135c-51.5,0-93.3,41.8-93.3,93.3
	v13.5h186.6v-13.5C441.4,176.7,399.6,135,348.1,135z"></path>
<path fill="none" stroke="#FFFFFF" stroke-width="3" stroke-miterlimit="10" d="M477.5,369.9"></path>
<path fill="none" stroke="#FFFFFF" stroke-width="3" stroke-miterlimit="10" d="M477.5,349.9"></path>
<g>
	<g>
		<rect x="493.3" y="544.1" fill="none" stroke="#FFFFFF" stroke-width="3" stroke-miterlimit="10" width="14.6" height="42.2"></rect>
		<rect x="527.3" y="544.1" fill="none" stroke="#FFFFFF" stroke-width="3" stroke-miterlimit="10" width="14.6" height="42.2"></rect>
		<rect x="507.9" y="551.7" fill="none" stroke="#FFFFFF" stroke-width="3" stroke-miterlimit="10" width="19.4" height="27"></rect>
		<line fill="none" stroke="#FFFFFF" stroke-width="3" stroke-miterlimit="10" x1="517.6" y1="551.7" x2="517.6" y2="578.7"></line>
	</g>
	<rect x="471.2" y="369.9" fill="none" stroke="#FFFFFF" stroke-width="3" stroke-miterlimit="10" width="92.9" height="32.7"></rect>
	<rect x="471.2" y="402.5" fill="none" stroke="#FFFFFF" stroke-width="3" stroke-miterlimit="10" width="92.9" height="213.5"></rect>
	<g>
		<path fill="none" stroke="#FFFFFF" stroke-width="3" stroke-miterlimit="10" d="M480.9,450.9L480.9,450.9
			c0-20.3,16.5-36.7,36.7-36.7c20.3,0,36.7,16.5,36.7,36.7v0H480.9z"></path>
		<path fill="none" stroke="#FFFFFF" stroke-width="3" stroke-miterlimit="10" d="M517.6,422.5c-15.7,0-28.4,12.7-28.4,28.4H546
			C546,435.2,533.3,422.5,517.6,422.5z"></path>
	</g>
	<rect x="489.2" y="463.6" fill="none" stroke="#FFFFFF" stroke-width="3" stroke-miterlimit="10" width="56.8" height="57.4"></rect>
	<line fill="none" stroke="#FFFFFF" stroke-width="3" stroke-miterlimit="10" x1="528.5" y1="463.6" x2="528.5" y2="521"></line>
	<line fill="none" stroke="#FFFFFF" stroke-width="3" stroke-miterlimit="10" x1="506.7" y1="463.6" x2="506.7" y2="521"></line>
	<rect x="546" y="330.3" fill="none" stroke="#FFFFFF" stroke-width="3" stroke-miterlimit="10" width="18" height="39.6"></rect>
	<line fill="none" stroke="#FFFFFF" stroke-width="3" stroke-miterlimit="10" x1="546" y1="349.9" x2="477.5" y2="349.9"></line>
	<line fill="none" stroke="#FFFFFF" stroke-width="3" stroke-miterlimit="10" x1="487.9" y1="349.9" x2="487.9" y2="369.9"></line>
	<path fill="none" stroke="#FFFFFF" stroke-width="3" stroke-miterlimit="10" d="M498.3,369.9"></path>
	<path fill="none" stroke="#FFFFFF" stroke-width="3" stroke-miterlimit="10" d="M498.3,349.9"></path>
	<line fill="none" stroke="#FFFFFF" stroke-width="3" stroke-miterlimit="10" x1="508.7" y1="349.9" x2="508.7" y2="369.9"></line>
	<path fill="none" stroke="#FFFFFF" stroke-width="3" stroke-miterlimit="10" d="M519.1,369.9"></path>
	<path fill="none" stroke="#FFFFFF" stroke-width="3" stroke-miterlimit="10" d="M519.1,349.9"></path>
	<line fill="none" stroke="#FFFFFF" stroke-width="3" stroke-miterlimit="10" x1="529.5" y1="349.9" x2="529.5" y2="369.9"></line>
	<path fill="none" stroke="#FFFFFF" stroke-width="3" stroke-miterlimit="10" d="M539.9,369.9"></path>
	<path fill="none" stroke="#FFFFFF" stroke-width="3" stroke-miterlimit="10" d="M539.9,349.9"></path>
</g>
<rect x="132.2" y="369.9" fill="none" stroke="#FFFFFF" stroke-width="3" stroke-miterlimit="10" width="92.9" height="32.7"></rect>
<rect x="132.2" y="402.5" fill="none" stroke="#FFFFFF" stroke-width="3" stroke-miterlimit="10" width="92.9" height="213.5"></rect>
<g>
	<path fill="none" stroke="#FFFFFF" stroke-width="3" stroke-miterlimit="10" d="M215.3,450.9L215.3,450.9
		c0-20.3-16.5-36.7-36.7-36.7s-36.7,16.5-36.7,36.7v0H215.3z"></path>
	<path fill="none" stroke="#FFFFFF" stroke-width="3" stroke-miterlimit="10" d="M178.6,422.5c15.7,0,28.4,12.7,28.4,28.4h-56.8
		C150.2,435.2,162.9,422.5,178.6,422.5z"></path>
</g>
<rect x="150.2" y="463.6" fill="none" stroke="#FFFFFF" stroke-width="3" stroke-miterlimit="10" width="56.8" height="57.4"></rect>
<line fill="none" stroke="#FFFFFF" stroke-width="3" stroke-miterlimit="10" x1="167.7" y1="463.6" x2="167.7" y2="521"></line>
<line fill="none" stroke="#FFFFFF" stroke-width="3" stroke-miterlimit="10" x1="189.5" y1="463.6" x2="189.5" y2="521"></line>
<rect x="132.2" y="330.3" fill="none" stroke="#FFFFFF" stroke-width="3" stroke-miterlimit="10" width="18" height="39.6"></rect>
<line fill="none" stroke="#FFFFFF" stroke-width="3" stroke-miterlimit="10" x1="150.2" y1="349.9" x2="218.7" y2="349.9"></line>
<line fill="none" stroke="#FFFFFF" stroke-width="3" stroke-miterlimit="10" x1="208.3" y1="349.9" x2="208.3" y2="369.9"></line>
<path fill="none" stroke="#FFFFFF" stroke-width="3" stroke-miterlimit="10" d="M197.9,369.9"></path>
<path fill="none" stroke="#FFFFFF" stroke-width="3" stroke-miterlimit="10" d="M197.9,349.9"></path>
<line fill="none" stroke="#FFFFFF" stroke-width="3" stroke-miterlimit="10" x1="187.5" y1="349.9" x2="187.5" y2="369.9"></line>
<path fill="none" stroke="#FFFFFF" stroke-width="3" stroke-miterlimit="10" d="M177.1,369.9"></path>
<path fill="none" stroke="#FFFFFF" stroke-width="3" stroke-miterlimit="10" d="M177.1,349.9"></path>
<line fill="none" stroke="#FFFFFF" stroke-width="3" stroke-miterlimit="10" x1="166.7" y1="349.9" x2="166.7" y2="369.9"></line>
<path fill="none" stroke="#FFFFFF" stroke-width="3" stroke-miterlimit="10" d="M156.3,369.9"></path>
<path fill="none" stroke="#FFFFFF" stroke-width="3" stroke-miterlimit="10" d="M156.3,349.9"></path>
<path fill="none" stroke="#FFFFFF" stroke-width="3" stroke-miterlimit="10" d="M350.2,217.3h-4.4c-6.2,0-11.3,5.1-11.3,11.3v13.2
	h27v-13.2C361.5,222.3,356.4,217.3,350.2,217.3z"></path>
<path fill="none" stroke="#FFFFFF" stroke-width="3" stroke-miterlimit="10" d="M297.3,226.5h-2.3c-3.3,0-5.9,2.6-5.9,5.9v9.3h14.2
	v-9.3C303.2,229.2,300.5,226.5,297.3,226.5z"></path>
<path fill="none" stroke="#FFFFFF" stroke-width="3" stroke-miterlimit="10" d="M401.3,226.5h-2.3c-3.3,0-5.9,2.6-5.9,5.9v9.3h14.2
	v-9.3C407.2,229.2,404.5,226.5,401.3,226.5z"></path>
<line fill="none" stroke="#FFFFFF" stroke-width="3" stroke-miterlimit="10" x1="348.1" y1="103.9" x2="348.1" y2="66.7"></line>
<circle fill="none" stroke="#FFFFFF" stroke-width="3" stroke-miterlimit="10" cx="348" cy="62.4" r="4.7"></circle>
<path fill="none" stroke="#FFFFFF" stroke-width="3" stroke-miterlimit="10" d="M173.9,559.2h9.3c13.1,0,23.8,10.6,23.8,23.8V616
	h-56.8v-33.1C150.2,569.8,160.8,559.2,173.9,559.2z"></path>
<line fill="none" stroke="#FFFFFF" stroke-width="3" stroke-miterlimit="10" x1="259.6" y1="316.7" x2="282" y2="316.7"></line>
<line fill="none" stroke="#FFFFFF" stroke-width="3" stroke-miterlimit="10" x1="413.9" y1="316.7" x2="436.4" y2="316.7"></line>
<path fill="none" stroke="#FFFFFF" stroke-width="3" stroke-miterlimit="10" d="M259.6,337.2"></path>
<path fill="none" stroke="#FFFFFF" stroke-width="3" stroke-miterlimit="10" d="M436.6,337.2"></path>
<path fill="none" stroke="#FFFFFF" stroke-width="3" stroke-linejoin="bevel" stroke-miterlimit="10" d="M370.8,337.2"></path>
<path fill="none" stroke="#FFFFFF" stroke-width="3" stroke-linejoin="bevel" stroke-miterlimit="10" d="M481.6,337.2"></path>
<path fill="none" stroke="#FFFFFF" stroke-width="3" stroke-linejoin="bevel" stroke-miterlimit="10" d="M471.2,369.9"></path>
<path fill="none" stroke="#FFFFFF" stroke-width="3" stroke-linejoin="bevel" stroke-miterlimit="10" d="M225,369.9"></path>
<path fill="none" stroke="#FFFFFF" stroke-width="3" stroke-linejoin="bevel" stroke-miterlimit="10" d="M214.6,337.2"></path>
<path fill="none" stroke="#FFFFFF" stroke-width="3" stroke-linejoin="bevel" stroke-miterlimit="10" d="M325.1,337.2"></path>
<path fill="none" stroke="#FFFFFF" stroke-width="3" stroke-miterlimit="10" d="M368.9,345.5"></path>
<line fill="none" stroke="#FFFFFF" stroke-width="3" stroke-miterlimit="10" x1="436.6" y1="327.9" x2="436.6" y2="345.5"></line>
<line fill="none" stroke="#FFFFFF" stroke-width="3" stroke-miterlimit="10" x1="259.6" y1="345.5" x2="259.6" y2="327.9"></line>
<path fill="none" stroke="#FFFFFF" stroke-width="3" stroke-miterlimit="10" d="M327,345.5"></path>
<path fill="none" stroke="#FFFFFF" stroke-width="3" stroke-linejoin="bevel" stroke-miterlimit="10" d="M370.8,337.2"></path>
<path fill="none" stroke="#FFFFFF" stroke-width="3" stroke-linejoin="bevel" stroke-miterlimit="10" d="M481.6,337.2"></path>
<path fill="none" stroke="#FFFFFF" stroke-width="3" stroke-linejoin="bevel" stroke-miterlimit="10" d="M214.6,337.2"></path>
<path fill="none" stroke="#FFFFFF" stroke-width="3" stroke-linejoin="bevel" stroke-miterlimit="10" d="M325.1,337.2"></path>
<path fill="none" stroke="#FFFFFF" stroke-width="3" stroke-miterlimit="10" d="M259.6,337.2"></path>
<path fill="none" stroke="#FFFFFF" stroke-width="3" stroke-miterlimit="10" d="M348.1,293"></path>
<path fill="none" stroke="#FFFFFF" stroke-width="3" stroke-miterlimit="10" d="M436.6,337.2"></path>
<path fill="none" stroke="#FFFFFF" stroke-width="3" stroke-miterlimit="10" d="M436.6,327.9"></path>
<path fill="none" stroke="#FFFFFF" stroke-width="3" stroke-miterlimit="10" d="M348.1,283.7"></path>
<path fill="none" stroke="#FFFFFF" stroke-width="3" stroke-miterlimit="10" d="M259.6,327.9"></path>
<line fill="none" stroke="#FFFFFF" stroke-width="3" stroke-miterlimit="10" x1="436.6" y1="345.5" x2="368.9" y2="345.5"></line>
<line fill="none" stroke="#FFFFFF" stroke-width="3" stroke-miterlimit="10" x1="327" y1="345.5" x2="259.6" y2="345.5"></line>
<path fill="none" stroke="#FFFFFF" stroke-width="3" stroke-miterlimit="10" d="M457.1,267.7"></path>
<path fill="none" stroke="#FFFFFF" stroke-width="3" stroke-miterlimit="10" d="M457.1,241.8"></path>
<path fill="none" stroke="#FFFFFF" stroke-width="3" stroke-miterlimit="10" d="M239.2,241.8"></path>
<path fill="none" stroke="#FFFFFF" stroke-width="3" stroke-miterlimit="10" d="M239.2,267.7"></path>
<line fill="none" stroke="#FFFFFF" stroke-width="3" stroke-miterlimit="10" x1="348.1" y1="283.7" x2="436.6" y2="327.9"></line>
<line fill="none" stroke="#FFFFFF" stroke-width="3" stroke-miterlimit="10" x1="436.6" y1="337.2" x2="348.1" y2="293"></line>
<line fill="none" stroke="#FFFFFF" stroke-width="3" stroke-miterlimit="10" x1="259.6" y1="327.9" x2="348.1" y2="283.7"></line>
<line fill="none" stroke="#FFFFFF" stroke-width="3" stroke-miterlimit="10" x1="348.1" y1="293" x2="259.6" y2="337.2"></line>
<line fill="none" stroke="#FFFFFF" stroke-width="3" stroke-linejoin="bevel" stroke-miterlimit="10" x1="471.2" y1="369.9" x2="481.6" y2="337.2"></line>
<line fill="none" stroke="#FFFFFF" stroke-width="3" stroke-linejoin="bevel" stroke-miterlimit="10" x1="225" y1="369.9" x2="471.2" y2="369.9"></line>
<line fill="none" stroke="#FFFFFF" stroke-width="3" stroke-linejoin="bevel" stroke-miterlimit="10" x1="214.6" y1="337.2" x2="225" y2="369.9"></line>
<line fill="none" stroke="#FFFFFF" stroke-width="3" stroke-linejoin="bevel" stroke-miterlimit="10" x1="325.1" y1="337.2" x2="214.6" y2="337.2"></line>
<line fill="none" stroke="#FFFFFF" stroke-width="3" stroke-linejoin="bevel" stroke-miterlimit="10" x1="481.6" y1="337.2" x2="370.8" y2="337.2"></line>
<line fill="none" stroke="#FFFFFF" stroke-width="3" stroke-miterlimit="10" x1="457.1" y1="241.8" x2="457.1" y2="267.7"></line>
<line fill="none" stroke="#FFFFFF" stroke-width="3" stroke-miterlimit="10" x1="239.2" y1="241.8" x2="457.1" y2="241.8"></line>
<line fill="none" stroke="#FFFFFF" stroke-width="3" stroke-miterlimit="10" x1="239.2" y1="267.7" x2="239.2" y2="241.8"></line>
</svg>