<svg xmlns="http://www.w3.org/2000/svg" viewBox="0 0 124.451 124.45"><g fill="none" stroke="#FFF" stroke-width="1.895" stroke-miterlimit="10"><circle cx="62.226" cy="62.225" r="61.278"></circle><path class="fill" d="M95.936 41.315c-2.48 1.1-5.146 1.844-7.944 2.178 2.856-1.712 5.05-4.423 6.082-7.652-2.673 1.586-5.633 2.737-8.784 3.357-2.522-2.688-6.117-4.368-10.096-4.368-7.64 0-13.833 6.192-13.833 13.83 0 1.085.123 2.14.36 3.153-11.497-.577-21.69-6.084-28.51-14.452-1.19 2.044-1.874 4.42-1.874 6.955 0 4.8 2.442 9.032 6.153 11.513-2.268-.07-4.4-.693-6.266-1.73v.174c0 6.702 4.767 12.293 11.095 13.563-1.162.316-2.384.485-3.646.485-.89 0-1.758-.087-2.602-.248 1.76 5.495 6.868 9.494 12.92 9.606-4.733 3.71-10.697 5.92-17.178 5.92-1.116 0-2.217-.064-3.3-.192 6.122 3.925 13.393 6.215 21.204 6.215 25.443 0 39.356-21.076 39.356-39.355 0-.6-.014-1.196-.04-1.79 2.702-1.95 5.047-4.386 6.902-7.16z"></path></g></svg>
